<svg width="22" height="22" viewBox="0 0 22 22" fill="none" xmlns="http://www.w3.org/2000/svg">
<path fill-rule="evenodd" clip-rule="evenodd" d="M10.8333 21.6667C4.85333 21.6667 0 16.8242 0 10.8333C0 4.85333 4.85333 0 10.8333 0C16.8242 0 21.6667 4.85333 21.6667 10.8333C21.6667 16.8242 16.8242 21.6667 10.8333 21.6667ZM14.2892 14.8525C14.4192 14.9283 14.56 14.9717 14.7117 14.9717C14.9825 14.9717 15.2533 14.8308 15.405 14.5708C15.6325 14.1917 15.5133 13.6933 15.1233 13.455L11.2667 11.1583V6.15333C11.2667 5.69833 10.8983 5.34083 10.4542 5.34083C10.01 5.34083 9.64167 5.69833 9.64167 6.15333V11.6242C9.64167 11.9058 9.79333 12.1658 10.0425 12.3175L14.2892 14.8525Z" fill="#AB94FF"/>
</svg>
